<?xml version="1.0" encoding="UTF-8"?>
<svg width="50px" height="58px" viewBox="0 0 50 58" version="1.1" xmlns="http://www.w3.org/2000/svg" xmlns:xlink="http://www.w3.org/1999/xlink">
    <title>Fill 1</title>
    <g id="Page-1" stroke="none" stroke-width="1" fill="none" fill-rule="evenodd">
        <g id="LANDING" transform="translate(-696.000000, -348.000000)" fill="#FF8200" stroke="#FF8200" stroke-width="0.5">
            <path d="M696.5,363.001592 L696.5,390.998006 L720.997988,405 L745.5,390.998006 L745.5,363.001592 L720.99839,349 L696.5,363.001592 Z M698.511587,389.851086 L698.511587,364.148513 L720.997988,351.301806 L742.482015,363.575052 L738.457633,365.872876 L720.997988,355.897454 L702.535969,366.450717 L702.535969,387.548881 L720.997988,398.102543 L739.464031,387.548881 L739.464031,372.197268 L720.997988,382.746549 L704.547959,373.348171 L704.547959,368.748541 L720.997988,378.150901 L743.48801,365.299416 L743.48801,389.851086 L720.997988,402.698191 L698.511587,389.851086 Z M705.553954,367.023779 L720.997988,358.198862 L736.446046,367.023779 L720.997988,375.849095 L705.553954,367.023779 Z M737.452041,375.645995 L737.452041,386.401961 L720.997988,395.800339 L704.547959,386.401961 L704.547959,375.645995 L720.997988,385.047957 L737.452041,375.645995 Z" id="Fill-1"></path>
        </g>
    </g>
</svg>