<?xml version="1.0" encoding="UTF-8"?>
<svg width="49px" height="56px" viewBox="0 0 49 56" version="1.1" xmlns="http://www.w3.org/2000/svg" xmlns:xlink="http://www.w3.org/1999/xlink">
    <title>Fill 1</title>
    <g id="Page-1" stroke="none" stroke-width="1" fill="none" fill-rule="evenodd">
        <g id="LANDING" transform="translate(-50.000000, -50.000000)" fill="#3B3B3B">
            <path d="M50,64.0015921 L50,91.9980063 L74.497988,106 L99,91.9980063 L99,64.0015921 L74.4983904,50 L50,64.0015921 Z M52.0115874,90.8510856 L52.0115874,65.1485128 L74.497988,52.3018061 L95.9820153,64.5750525 L91.9576332,66.8728763 L74.497988,56.8974537 L56.0359695,67.4507172 L56.0359695,88.5488812 L74.497988,99.1025429 L92.9640305,88.5488812 L92.9640305,73.1972679 L74.497988,83.746549 L58.0479593,74.3481709 L58.0479593,69.748541 L74.497988,79.1509014 L96.9880102,66.2994159 L96.9880102,90.8510856 L74.497988,103.698191 L52.0115874,90.8510856 Z M59.0539542,68.0237793 L74.497988,59.1988616 L89.9460458,68.0237793 L74.497988,76.8490953 L59.0539542,68.0237793 Z M90.9520407,76.6459947 L90.9520407,87.4019605 L74.497988,96.8003386 L58.0479593,87.4019605 L58.0479593,76.6459947 L74.497988,86.0479569 L90.9520407,76.6459947 Z" id="Fill-1"></path>
        </g>
    </g>
</svg>